<svg xmlns="http://www.w3.org/2000/svg" width="900" height="498" viewBox="0 0 900 498">
<rect width="100%" height="100%" fill="#fbfcfe"/>
<style>text{font-family:Arial,sans-serif;fill:#172033}.title{font-size:20px;font-weight:700}.label{font-size:13px}.value{font-size:13px;fill:#43506a}</style>
<text x="28" y="36" class="title">1OVA modification-site distance to NAG</text>
<text x="28" y="61" class="value">Minimum heavy-atom distance; chain A</text>
<text x="28" y="106" class="label">Asn-292 → N-293 → PDB ASN298</text>
<rect x="330" y="88" width="20.21" height="24" rx="5" fill="#e76f51"/>
<text x="359.21" y="106" class="value">1.5 Å</text>
<text x="28" y="160" class="label">Arg-84 → R-85 → PDB ARG97</text>
<rect x="330" y="142" width="371.32" height="24" rx="5" fill="#457b9d"/>
<text x="710.32" y="160" class="value">27.0 Å</text>
<text x="28" y="214" class="label">Lys-92 → K-93 → PDB LYS105</text>
<rect x="330" y="196" width="410.60" height="24" rx="5" fill="#457b9d"/>
<text x="749.60" y="214" class="value">29.8 Å</text>
<text x="28" y="268" class="label">Lys-206 → K-207 → PDB LYS216</text>
<rect x="330" y="250" width="351.42" height="24" rx="5" fill="#457b9d"/>
<text x="690.42" y="268" class="value">25.5 Å</text>
<text x="28" y="322" class="label">Lys-263 → K-264 → PDB LYS271</text>
<rect x="330" y="304" width="410.71" height="24" rx="5" fill="#457b9d"/>
<text x="749.71" y="322" class="value">29.8 Å</text>
<text x="28" y="376" class="label">Lys-322 → K-323 → PDB LYS328</text>
<rect x="330" y="358" width="126.75" height="24" rx="5" fill="#457b9d"/>
<text x="465.75" y="376" class="value">9.2 Å</text>
<text x="28" y="430" class="label">Arg-381 → R-382 → PDB ARG387</text>
<rect x="330" y="412" width="262.12" height="24" rx="5" fill="#457b9d"/>
<text x="601.12" y="430" class="value">19.0 Å</text>
</svg>